<svg width="50.000000" height="50.000000" viewBox="0 0 50 50" fill="none" xmlns="http://www.w3.org/2000/svg" xmlns:xlink="http://www.w3.org/1999/xlink">
	<desc>
			Created with Pixso.
	</desc>
	<defs>
		<clipPath id="clip912_9615">
			<rect id="fontisto:tripadvisor" width="22.580643" height="22.580643" transform="translate(13.709717 13.709473)" fill="white" fill-opacity="0"/>
		</clipPath>
	</defs>
	<rect id="Rectangle 170" rx="25.000000" width="50.000000" height="50.000000" fill="#FFFFFF" fill-opacity="1.000000"/>
	<rect id="Rectangle 170" x="0.500000" y="0.500000" rx="24.500000" width="49.000000" height="49.000000" stroke="#008060" stroke-opacity="1.000000" stroke-width="1.000000"/>
	<rect id="fontisto:tripadvisor" width="22.580643" height="22.580643" transform="translate(13.709717 13.709473)" fill="#FFFFFF" fill-opacity="0"/>
	<g clip-path="url(#clip912_9615)">
		<path id="Vector" d="M20.08 25.84L20.08 25.85C20.08 26.1 19.98 26.33 19.82 26.49C19.73 26.57 19.64 26.64 19.53 26.69C19.42 26.73 19.3 26.76 19.18 26.76L19.17 26.76L19.17 26.76L19.17 26.76C18.93 26.76 18.69 26.66 18.52 26.49C18.35 26.32 18.25 26.08 18.25 25.84L18.25 25.83C18.25 25.58 18.36 25.35 18.52 25.19C18.6 25.11 18.7 25.04 18.81 24.99C18.92 24.95 19.04 24.92 19.16 24.92L19.17 24.92L19.17 24.92C19.41 24.93 19.64 25.02 19.81 25.19C19.99 25.36 20.08 25.59 20.08 25.83L20.08 25.84L20.08 25.84ZM31.39 25.82C31.39 26.07 31.3 26.3 31.12 26.48C30.95 26.65 30.72 26.74 30.47 26.74C30.23 26.74 29.99 26.65 29.82 26.48C29.65 26.3 29.55 26.07 29.55 25.82L29.55 25.81C29.55 25.56 29.65 25.34 29.82 25.18C29.99 25.01 30.23 24.91 30.47 24.91C30.72 24.91 30.95 25.01 31.12 25.18C31.21 25.26 31.28 25.36 31.32 25.47C31.37 25.57 31.39 25.69 31.39 25.81L31.39 25.83L31.39 25.82L31.39 25.82ZM21.2 25.83C21.21 25.58 21.16 25.33 21.07 25.1C20.98 24.86 20.84 24.65 20.66 24.47C20.49 24.29 20.28 24.15 20.04 24.05C19.81 23.95 19.56 23.9 19.31 23.9C19.06 23.9 18.81 23.95 18.58 24.05C18.35 24.15 18.14 24.29 17.96 24.47C17.78 24.65 17.65 24.86 17.55 25.1C17.46 25.33 17.42 25.58 17.42 25.83C17.43 26.33 17.64 26.8 17.99 27.14C18.34 27.49 18.82 27.68 19.31 27.68C19.81 27.68 20.28 27.49 20.63 27.14C20.99 26.8 21.19 26.33 21.2 25.83L21.2 25.83ZM32.5 25.82C32.5 25.39 32.35 24.96 32.07 24.62C31.79 24.29 31.41 24.06 30.98 23.97C30.55 23.89 30.1 23.95 29.72 24.16C29.33 24.36 29.03 24.7 28.86 25.1C28.7 25.51 28.67 25.95 28.8 26.37C28.93 26.79 29.2 27.15 29.56 27.4C29.92 27.64 30.36 27.75 30.79 27.71C31.23 27.66 31.64 27.47 31.95 27.16C32.29 26.83 32.5 26.37 32.5 25.85L32.5 25.82L32.5 25.82L32.5 25.82ZM22.03 25.83C22.03 26.56 21.75 27.25 21.23 27.76C20.72 28.28 20.03 28.56 19.3 28.56C18.58 28.56 17.89 28.28 17.37 27.76C16.86 27.25 16.57 26.56 16.57 25.83L16.57 25.79C16.57 25.05 16.88 24.38 17.38 23.91L17.38 23.91C17.62 23.66 17.92 23.46 18.24 23.32C18.57 23.18 18.92 23.11 19.27 23.11L19.31 23.11L19.31 23.11L19.35 23.11C19.7 23.11 20.05 23.18 20.37 23.32C20.69 23.46 20.99 23.66 21.23 23.91L21.23 23.91C21.73 24.39 22.03 25.06 22.03 25.8L22.03 25.84L22.03 25.84L22.03 25.83ZM33.34 25.82L33.34 25.83C33.34 26.46 33.12 27.07 32.72 27.56C32.32 28.05 31.76 28.38 31.14 28.5C30.53 28.63 29.88 28.53 29.33 28.23C28.77 27.94 28.33 27.45 28.09 26.87C27.85 26.29 27.82 25.64 28 25.03C28.18 24.43 28.57 23.91 29.1 23.56C29.62 23.21 30.25 23.05 30.88 23.11C31.51 23.17 32.1 23.45 32.54 23.9C33.04 24.38 33.34 25.04 33.34 25.78L33.34 25.83L33.34 25.82ZM23.9 25.85L23.9 25.79C23.9 25.2 23.78 24.62 23.55 24.09C23.32 23.55 22.99 23.06 22.57 22.65L22.57 22.65C22.16 22.23 21.68 21.9 21.14 21.67C20.6 21.44 20.02 21.32 19.43 21.32L19.36 21.33L19.37 21.33L19.34 21.33C18.52 21.33 17.74 21.55 17.09 21.94L17.11 21.93C15.75 22.73 14.85 24.19 14.85 25.85C14.85 27.52 15.75 28.97 17.08 29.76L17.11 29.77C17.78 30.17 18.55 30.38 19.34 30.38L19.37 30.38L19.37 30.38L19.44 30.38C20.02 30.38 20.6 30.26 21.14 30.04C21.68 29.81 22.16 29.48 22.57 29.05L22.57 29.05C22.99 28.65 23.32 28.16 23.55 27.62C23.78 27.08 23.9 26.5 23.9 25.92L23.9 25.85L23.9 25.85L23.9 25.85ZM30.44 20.24C28.88 19.55 27.06 19.15 25.15 19.15L24.99 19.15L25 19.15C23.04 19.12 21.09 19.5 19.29 20.26L19.38 20.23L19.4 20.23C20.18 20.23 20.92 20.39 21.6 20.69L21.56 20.68C22.26 20.97 22.85 21.38 23.35 21.88C23.85 22.38 24.25 22.98 24.53 23.63L24.55 23.67C24.83 24.31 24.99 25.05 24.99 25.84L24.99 25.85L24.99 25.85C24.99 24.33 25.6 22.95 26.57 21.93L26.57 21.93C27.06 21.44 27.64 21.03 28.28 20.74L28.31 20.73C28.98 20.42 29.7 20.25 30.43 20.24L30.44 20.24L30.44 20.24ZM35.14 25.85C35.14 24.81 34.77 23.79 34.11 22.98C33.44 22.18 32.52 21.62 31.49 21.42C30.47 21.22 29.4 21.38 28.48 21.87C27.56 22.37 26.83 23.16 26.44 24.13C26.04 25.1 25.98 26.17 26.29 27.17C26.59 28.18 27.24 29.04 28.11 29.62C28.98 30.2 30.02 30.46 31.06 30.36C32.1 30.25 33.08 29.79 33.82 29.05C34.24 28.65 34.57 28.16 34.8 27.62C35.02 27.08 35.14 26.51 35.14 25.92L35.14 25.85L35.14 25.85ZM32.53 20.31L36.29 20.31C36 20.64 35.76 21 35.56 21.4L35.55 21.43C35.37 21.77 35.24 22.14 35.16 22.52L35.16 22.55C35.86 23.51 36.24 24.67 36.24 25.86C36.24 27.02 35.88 28.15 35.21 29.09C34.54 30.04 33.6 30.76 32.5 31.15C31.41 31.54 30.23 31.58 29.11 31.27C27.99 30.96 27 30.31 26.27 29.41L26.26 29.4C25.85 29.91 25.43 30.48 25.05 31.07L25 31.16C24.83 30.87 24.65 30.59 24.45 30.33L24.47 30.35C24.19 29.95 23.95 29.63 23.74 29.39C22.81 30.53 21.48 31.25 20.03 31.42C18.58 31.59 17.11 31.18 15.96 30.29C14.8 29.4 14.03 28.09 13.83 26.64C13.62 25.19 13.98 23.72 14.85 22.54L14.83 22.55C14.75 22.15 14.62 21.77 14.43 21.41L14.44 21.43C14.24 21.02 13.99 20.64 13.7 20.3L13.7 20.31L17.28 20.31C18.33 19.62 19.47 19.11 20.68 18.79L20.76 18.77C22.12 18.4 23.52 18.22 24.92 18.22L25 18.22L25 18.22L25.1 18.22C26.53 18.22 27.91 18.42 29.23 18.8L29.12 18.77C30.42 19.13 31.55 19.66 32.57 20.34L32.53 20.31L32.53 20.31Z" fill="#008060" fill-opacity="1.000000" fill-rule="nonzero"/>
	</g>
</svg>
