<svg width="50.000000" height="50.000000" viewBox="0 0 50 50" fill="none" xmlns="http://www.w3.org/2000/svg" xmlns:xlink="http://www.w3.org/1999/xlink">
	<desc>
			Created with Pixso.
	</desc>
	<defs>
		<clipPath id="clip912_9623">
			<rect id="mdi:whatsapp" width="22.580643" height="22.580643" transform="translate(13.709717 13.709473)" fill="white" fill-opacity="0"/>
		</clipPath>
	</defs>
	<rect id="Rectangle 170" rx="25.000000" width="50.000000" height="50.000000" fill="#FFFFFF" fill-opacity="1.000000"/>
	<rect id="Rectangle 170" x="0.500000" y="0.500000" rx="24.500000" width="49.000000" height="49.000000" stroke="#008060" stroke-opacity="1.000000" stroke-width="1.000000"/>
	<rect id="mdi:whatsapp" width="22.580643" height="22.580643" transform="translate(13.709717 13.709473)" fill="#FFFFFF" fill-opacity="0"/>
	<g clip-path="url(#clip912_9623)">
		<path id="Vector" d="M25.03 15.59C19.9 15.59 15.71 19.77 15.71 24.91C15.71 26.56 16.14 28.16 16.95 29.57L15.63 34.4L20.57 33.1C21.94 33.85 23.47 34.24 25.03 34.24C30.17 34.24 34.36 30.06 34.36 24.92C34.36 22.43 33.39 20.08 31.63 18.32C30.77 17.45 29.74 16.76 28.61 16.29C27.47 15.82 26.26 15.58 25.03 15.59ZM25.04 17.16C27.11 17.16 29.05 17.97 30.52 19.43C31.24 20.15 31.81 21.01 32.2 21.95C32.59 22.89 32.79 23.9 32.79 24.92C32.79 29.19 29.3 32.66 25.03 32.66C23.64 32.66 22.28 32.3 21.09 31.58L20.81 31.42L17.87 32.19L18.65 29.33L18.47 29.03C17.69 27.8 17.28 26.37 17.28 24.91C17.29 20.64 20.76 17.16 25.04 17.16ZM21.73 20.6C21.58 20.6 21.33 20.66 21.11 20.89C20.9 21.13 20.29 21.7 20.29 22.84C20.29 23.99 21.13 25.09 21.23 25.25C21.36 25.41 22.89 27.76 25.23 28.76C25.79 29.01 26.22 29.15 26.56 29.26C27.11 29.44 27.62 29.41 28.02 29.35C28.48 29.29 29.4 28.79 29.6 28.24C29.79 27.7 29.79 27.23 29.74 27.13C29.67 27.04 29.52 26.98 29.29 26.88C29.05 26.74 27.9 26.18 27.7 26.1C27.48 26.03 27.35 25.99 27.17 26.22C27.02 26.45 26.57 26.98 26.43 27.13C26.29 27.29 26.16 27.31 25.94 27.2C25.69 27.07 24.94 26.83 24.05 26.04C23.36 25.42 22.9 24.66 22.76 24.42C22.64 24.2 22.75 24.05 22.86 23.95C22.96 23.85 23.11 23.68 23.21 23.54C23.33 23.4 23.37 23.3 23.44 23.15C23.52 22.99 23.48 22.86 23.42 22.75C23.37 22.64 22.9 21.48 22.7 21.01C22.51 20.56 22.32 20.62 22.17 20.61C22.04 20.61 21.89 20.6 21.73 20.6Z" fill="#008060" fill-opacity="1.000000" fill-rule="nonzero"/>
	</g>
</svg>
