<svg width="50.000000" height="50.000000" viewBox="0 0 50 50" fill="none" xmlns="http://www.w3.org/2000/svg" xmlns:xlink="http://www.w3.org/1999/xlink">
	<desc>
			Created with Pixso.
	</desc>
	<defs>
		<clipPath id="clip912_9627">
			<rect id="mdi:instagram" width="22.580643" height="22.580643" transform="translate(13.709473 13.709473)" fill="white" fill-opacity="0"/>
		</clipPath>
	</defs>
	<rect id="Rectangle 173" rx="25.000000" width="50.000000" height="50.000000" fill="#FFFFFF" fill-opacity="1.000000"/>
	<rect id="Rectangle 173" x="0.500000" y="0.500000" rx="24.500000" width="49.000000" height="49.000000" stroke="#008060" stroke-opacity="1.000000" stroke-width="1.000000"/>
	<rect id="mdi:instagram" width="22.580643" height="22.580643" transform="translate(13.709473 13.709473)" fill="#FFFFFF" fill-opacity="0"/>
	<g clip-path="url(#clip912_9627)">
		<path id="Vector" d="M21.04 15.59L28.95 15.59C31.96 15.59 34.4 18.03 34.4 21.04L34.4 28.95C34.4 30.39 33.83 31.78 32.81 32.81C31.78 33.83 30.39 34.4 28.95 34.4L21.04 34.4C18.03 34.4 15.59 31.96 15.59 28.95L15.59 21.04C15.59 19.6 16.16 18.21 17.18 17.18C18.21 16.16 19.6 15.59 21.04 15.59ZM20.86 17.47C19.96 17.47 19.1 17.82 18.46 18.46C17.82 19.1 17.47 19.96 17.47 20.85L17.47 29.13C17.47 31.01 18.98 32.52 20.86 32.52L29.13 32.52C30.03 32.52 30.89 32.16 31.53 31.53C32.16 30.89 32.52 30.03 32.52 29.13L32.52 20.85C32.52 18.98 31.01 17.47 29.13 17.47L20.86 17.47ZM29.93 18.88C30.25 18.88 30.55 19 30.77 19.22C30.99 19.44 31.11 19.74 31.11 20.06C31.11 20.37 30.99 20.67 30.77 20.89C30.55 21.11 30.25 21.23 29.93 21.23C29.62 21.23 29.32 21.11 29.1 20.89C28.88 20.67 28.76 20.37 28.76 20.06C28.76 19.74 28.88 19.44 29.1 19.22C29.32 19 29.62 18.88 29.93 18.88ZM25 20.29C26.24 20.29 27.44 20.79 28.32 21.67C29.2 22.55 29.7 23.75 29.7 24.99C29.7 26.24 29.2 27.44 28.32 28.32C27.44 29.2 26.24 29.7 25 29.7C23.75 29.7 22.55 29.2 21.67 28.32C20.79 27.44 20.29 26.24 20.29 24.99C20.29 23.75 20.79 22.55 21.67 21.67C22.55 20.79 23.75 20.29 25 20.29ZM25 22.17C24.25 22.17 23.53 22.47 23 23C22.47 23.53 22.17 24.25 22.17 24.99C22.17 25.74 22.47 26.46 23 26.99C23.53 27.52 24.25 27.82 25 27.82C25.74 27.82 26.46 27.52 26.99 26.99C27.52 26.46 27.82 25.74 27.82 24.99C27.82 24.25 27.52 23.53 26.99 23C26.46 22.47 25.74 22.17 25 22.17Z" fill="#008060" fill-opacity="1.000000" fill-rule="nonzero"/>
	</g>
</svg>
