<svg width="23" height="16" viewBox="0 0 23 16" fill="none" xmlns="http://www.w3.org/2000/svg">
<path fill-rule="evenodd" clip-rule="evenodd" d="M16.3431 0.928939L22.7071 7.2929C23.0976 7.68342 23.0976 8.31659 22.7071 8.70711L16.3431 15.0711C15.9526 15.4616 15.3195 15.4616 14.9289 15.0711C14.5384 14.6806 14.5384 14.0474 14.9289 13.6569L19.5858 9.00001L1 9.00001C0.447716 9.00001 6.9206e-07 8.55229 6.43778e-07 8.00001C5.95496e-07 7.44772 0.447716 7.00001 1 7.00001L19.5858 7.00001L14.9289 2.34315C14.5384 1.95263 14.5384 1.31946 14.9289 0.928939C15.3195 0.538415 15.9526 0.538415 16.3431 0.928939Z" fill="#008060"/>
</svg>
